<svg width="10cm" height="10cm" viewBox="0 0 1000 1000" xmlns="http://www.w3.org/2000/svg"><title>Example cubic02 - cubic Bézier commands in path data</title><desc>Picture showing examples of &quot;C&quot; and &quot;S&quot; commands, along with annotations showing the control points and end points</desc><style>.Border,.Connect{fill:none;stroke:#00f;stroke-width:1}.Connect{stroke:#888;stroke-width:2}.SamplePath{fill:none;stroke:red;stroke-width:5}.EndPoint{fill:none;stroke:#888;stroke-width:2}.CtlPoint{fill:#888;stroke:none}.AutoCtlPoint{fill:none;stroke:#00f;stroke-width:4}.Label{text-anchor:middle;font-size:22;font-family:Verdana}</style><path class="Border" d="M1 1h998v998H1z"/><path class="Connect" d="M100 200V100M400 100v100"/><path class="SamplePath" d="M100 200c0-100 300-100 300 0"/><circle class="EndPoint" cx="100" cy="200" r="10"/><circle class="EndPoint" cx="400" cy="200" r="10"/><circle class="CtlPoint" cx="100" cy="100" r="10"/><circle class="CtlPoint" cx="400" cy="100" r="10"/><text class="Label" x="250" y="275">M100,200 C100,100 400,100 400,200</text><path class="Connect" d="M100 500L25 400M475 400l-75 100"/><path class="SamplePath" d="M100 500c-75-100 375-100 300 0"/><circle class="EndPoint" cx="100" cy="500" r="10"/><circle class="EndPoint" cx="400" cy="500" r="10"/><circle class="CtlPoint" cx="25" cy="400" r="10"/><circle class="CtlPoint" cx="475" cy="400" r="10"/><text class="Label" x="250" y="575">M100,500 C25,400 475,400 400,500</text><path class="Connect" d="M100 800l75-100M325 700l75 100"/><path class="SamplePath" d="M100 800c75-100 225-100 300 0"/><circle class="EndPoint" cx="100" cy="800" r="10"/><circle class="EndPoint" cx="400" cy="800" r="10"/><circle class="CtlPoint" cx="175" cy="700" r="10"/><circle class="CtlPoint" cx="325" cy="700" r="10"/><text class="Label" x="250" y="875">M100,800 C175,700 325,700 400,800</text><path class="Connect" d="M600 200l75-100M975 100l-75 100"/><path class="SamplePath" d="M600 200c75-100 375-100 300 0"/><circle class="EndPoint" cx="600" cy="200" r="10"/><circle class="EndPoint" cx="900" cy="200" r="10"/><circle class="CtlPoint" cx="675" cy="100" r="10"/><circle class="CtlPoint" cx="975" cy="100" r="10"/><text class="Label" x="750" y="275">M600,200 C675,100 975,100 900,200</text><path class="Connect" d="M600 500V350M900 650V500"/><path class="SamplePath" d="M600 500c0-150 300 150 300 0"/><circle class="EndPoint" cx="600" cy="500" r="10"/><circle class="EndPoint" cx="900" cy="500" r="10"/><circle class="CtlPoint" cx="600" cy="350" r="10"/><circle class="CtlPoint" cx="900" cy="650" r="10"/><text class="Label" x="750" y="575">M600,500 C600,350 900,650 900,500</text><path class="Connect" d="M600 800l25-100M725 700l25 100M750 800l25 100M875 900l25-100"/><path class="SamplePath" d="M600 800c25-100 125-100 150 0s125 100 150 0"/><circle class="EndPoint" cx="600" cy="800" r="10"/><circle class="EndPoint" cx="750" cy="800" r="10"/><circle class="EndPoint" cx="900" cy="800" r="10"/><circle class="CtlPoint" cx="625" cy="700" r="10"/><circle class="CtlPoint" cx="725" cy="700" r="10"/><circle class="CtlPoint" cx="875" cy="900" r="10"/><circle class="AutoCtlPoint" cx="775" cy="900" r="9"/><text class="Label" x="750" y="945">M600,800 C625,700 725,700 750,800</text><text class="Label" x="750" y="975">S875,900 900,800</text></svg>